<?xml version="1.0" encoding="UTF-8" standalone="no"?>
<!-- Generator: Adobe Illustrator 16.0.3, SVG Export Plug-In . SVG Version: 6.00 Build 0)  -->

<svg
   xmlns:dc="http://purl.org/dc/elements/1.1/"
   xmlns:cc="http://creativecommons.org/ns#"
   xmlns:rdf="http://www.w3.org/1999/02/22-rdf-syntax-ns#"
   xmlns:svg="http://www.w3.org/2000/svg"
   xmlns="http://www.w3.org/2000/svg"
   xmlns:sodipodi="http://sodipodi.sourceforge.net/DTD/sodipodi-0.dtd"
   xmlns:inkscape="http://www.inkscape.org/namespaces/inkscape"
   version="1.1"
   id="Layer_1"
   x="0px"
   y="0px"
   width="199.632"
   height="36.413002"
   viewBox="0 0 199.632 36.413002"
   enable-background="new 0 0 200 48"
   xml:space="preserve"
   sodipodi:docname="foundry_logo_full_white.svg"
   inkscape:version="0.92.4 5da689c313, 2019-01-14"><metadata
   id="metadata31"><rdf:RDF><cc:Work
       rdf:about=""><dc:format>image/svg+xml</dc:format><dc:type
         rdf:resource="http://purl.org/dc/dcmitype/StillImage" /><dc:title></dc:title></cc:Work></rdf:RDF></metadata><defs
   id="defs29" /><sodipodi:namedview
   pagecolor="#ffffff"
   bordercolor="#666666"
   borderopacity="1"
   objecttolerance="10"
   gridtolerance="10"
   guidetolerance="10"
   inkscape:pageopacity="0"
   inkscape:pageshadow="2"
   inkscape:window-width="1920"
   inkscape:window-height="1136"
   id="namedview27"
   showgrid="false"
   fit-margin-top="0"
   fit-margin-left="0"
   fit-margin-right="0"
   fit-margin-bottom="0"
   inkscape:zoom="1.46"
   inkscape:cx="99.816"
   inkscape:cy="18.206001"
   inkscape:window-x="1920"
   inkscape:window-y="27"
   inkscape:window-maximized="1"
   inkscape:current-layer="Layer_1" />
<g
   id="g24"
   transform="translate(-0.184,-5.793)">
	<rect
   x="23.327999"
   y="37.748001"
   width="28.414"
   height="4.4580002"
   id="rect2"
   style="fill:#f7931e" />
	<g
   id="g22">
		<g
   id="g16">
			<path
   d="m 6.355,11.201 v 7.048 H 18.696 V 23.2 H 6.355 v 9.713 H 0.184 V 6.249 h 20.15 v 4.952 z"
   id="path4"
   inkscape:connector-curvature="0"
   style="fill:#ffffff" />
			<path
   d="M 59.625,30.209 C 57.504,28.101 56.444,25.092 56.444,21.181 V 6.249 h 6.171 v 14.703 c 0,4.774 1.981,7.161 5.942,7.161 1.93,0 3.402,-0.577 4.419,-1.732 1.015,-1.156 1.523,-2.964 1.523,-5.429 V 6.249 h 6.094 v 14.932 c 0,3.911 -1.061,6.92 -3.181,9.028 -2.12,2.107 -5.085,3.16 -8.894,3.16 -3.809,0 -6.774,-1.053 -8.893,-3.16 z"
   id="path6"
   inkscape:connector-curvature="0"
   style="fill:#ffffff" />
			<path
   d="m 111.141,6.249 v 26.664 h -5.066 L 92.782,16.725 V 32.913 H 86.687 V 6.249 h 5.104 l 13.256,16.189 V 6.249 Z"
   id="path8"
   inkscape:connector-curvature="0"
   style="fill:#ffffff" />
			<path
   d="m 117.465,6.249 h 12.112 c 2.895,0 5.453,0.553 7.676,1.658 2.221,1.104 3.948,2.66 5.18,4.667 1.231,2.005 1.847,4.341 1.847,7.008 0,2.667 -0.616,5.002 -1.847,7.009 -1.232,2.006 -2.959,3.562 -5.18,4.666 -2.222,1.105 -4.781,1.657 -7.676,1.657 h -12.112 z m 11.807,21.598 c 2.667,0 4.793,-0.743 6.38,-2.228 1.587,-1.486 2.381,-3.499 2.381,-6.038 0,-2.539 -0.794,-4.552 -2.381,-6.037 -1.587,-1.485 -3.713,-2.229 -6.38,-2.229 h -5.637 v 16.531 h 5.637 z"
   id="path10"
   inkscape:connector-curvature="0"
   style="fill:#ffffff" />
			<path
   d="m 165.915,32.913 -5.142,-7.428 h -0.305 -5.371 v 7.428 h -6.17 V 6.249 h 11.541 c 2.361,0 4.412,0.394 6.152,1.181 1.739,0.788 3.079,1.905 4.018,3.351 0.939,1.448 1.41,3.163 1.41,5.143 0,1.981 -0.477,3.689 -1.429,5.124 -0.952,1.436 -2.305,2.533 -4.056,3.294 l 5.98,8.57 h -6.628 z m -1.562,-20.434 c -0.965,-0.802 -2.374,-1.202 -4.228,-1.202 h -5.028 v 9.295 h 5.028 c 1.854,0 3.263,-0.406 4.228,-1.219 0.965,-0.813 1.448,-1.956 1.448,-3.428 0,-1.498 -0.483,-2.649 -1.448,-3.446 z"
   id="path12"
   inkscape:connector-curvature="0"
   style="fill:#ffffff" />
			<path
   d="m 189.455,23.466 v 9.446 h -6.171 V 23.39 L 172.962,6.249 h 6.551 l 7.123,11.847 7.123,-11.847 h 6.057 z"
   id="path14"
   inkscape:connector-curvature="0"
   style="fill:#ffffff" />
		</g>
		<g
   id="g20">
			<path
   d="M 50.121,12.515 C 48.851,10.421 47.112,8.776 44.903,7.582 42.694,6.389 40.205,5.793 37.437,5.793 c -2.768,0 -5.263,0.596 -7.485,1.789 -2.223,1.194 -3.962,2.839 -5.218,4.933 -1.257,2.095 -1.886,4.451 -1.886,7.066 0,2.616 0.629,4.971 1.886,7.065 1.257,2.095 2.996,3.74 5.218,4.933 1.526,0.819 3.184,1.352 4.967,1.608 V 27.763 C 34.308,27.585 33.724,27.343 33.17,27.027 31.9,26.303 30.904,25.295 30.18,24 c -0.723,-1.295 -1.085,-2.768 -1.085,-4.419 0,-1.65 0.362,-3.124 1.085,-4.419 0.724,-1.295 1.72,-2.304 2.99,-3.028 1.27,-0.723 2.691,-1.085 4.266,-1.085 1.574,0 2.996,0.362 4.266,1.085 1.27,0.724 2.267,1.733 2.991,3.028 0.723,1.295 1.085,2.769 1.085,4.419 0,1.651 -0.362,3.124 -1.085,4.419 -0.724,1.295 -1.721,2.304 -2.991,3.027 -0.494,0.282 -1.011,0.506 -1.552,0.68 v 5.451 c 1.705,-0.267 3.291,-0.79 4.752,-1.579 2.209,-1.193 3.948,-2.838 5.218,-4.933 1.27,-2.094 1.905,-4.449 1.905,-7.065 0.001,-2.615 -0.635,-4.971 -1.904,-7.066 z"
   id="path18"
   inkscape:connector-curvature="0"
   style="fill:#ffffff" />
		</g>
	</g>
</g>
</svg>